<svg xmlns="http://www.w3.org/2000/svg" viewBox="0 0 400 400">
  <!-- Grid size: 10px pixels for better detail while maintaining pixel art feel -->
  
  <!-- Background gradient circle - using smaller pixel grid -->
  <!-- Top light green rows -->
  <rect x="100" y="20" width="200" height="10" fill="#2e8b57"/>
  <rect x="80" y="30" width="240" height="10" fill="#2e8b57"/>
  <rect x="70" y="40" width="260" height="10" fill="#2e8b57"/>
  <rect x="60" y="50" width="280" height="10" fill="#2e8b57"/>
  <rect x="50" y="60" width="300" height="10" fill="#2e8b57"/>
  <rect x="40" y="70" width="320" height="10" fill="#2e8b57"/>
  <rect x="40" y="80" width="320" height="20" fill="#2e8b57"/>
  <rect x="30" y="100" width="340" height="20" fill="#2e8b57"/>
  
  <!-- Middle green rows - gradual transition -->
  <rect x="30" y="120" width="340" height="20" fill="#2a8050"/>
  <rect x="30" y="140" width="340" height="20" fill="#277549"/>
  <rect x="30" y="160" width="340" height="20" fill="#246a42"/>
  <rect x="30" y="180" width="340" height="20" fill="#215f3b"/>
  <rect x="30" y="200" width="340" height="20" fill="#1e5434"/>
  <rect x="30" y="220" width="340" height="20" fill="#1b492d"/>
  
  <!-- Bottom dark green rows -->
  <rect x="30" y="240" width="340" height="20" fill="#183e26"/>
  <rect x="30" y="260" width="340" height="20" fill="#15331f"/>
  <rect x="40" y="280" width="320" height="10" fill="#12281a"/>
  <rect x="40" y="290" width="320" height="10" fill="#0f3d0f"/>
  <rect x="50" y="300" width="300" height="10" fill="#0f3d0f"/>
  <rect x="60" y="310" width="280" height="10" fill="#0f3d0f"/>
  <rect x="70" y="320" width="260" height="10" fill="#0f3d0f"/>
  <rect x="80" y="330" width="240" height="10" fill="#0f3d0f"/>
  <rect x="100" y="340" width="200" height="10" fill="#0f3d0f"/>
  
  <!-- White border -->
  <rect x="100" y="10" width="200" height="10" fill="white"/>
  <rect x="80" y="20" width="20" height="10" fill="white"/>
  <rect x="300" y="20" width="20" height="10" fill="white"/>
  <rect x="70" y="30" width="10" height="10" fill="white"/>
  <rect x="320" y="30" width="10" height="10" fill="white"/>
  <rect x="60" y="40" width="10" height="10" fill="white"/>
  <rect x="330" y="40" width="10" height="10" fill="white"/>
  <rect x="50" y="50" width="10" height="10" fill="white"/>
  <rect x="340" y="50" width="10" height="10" fill="white"/>
  <rect x="40" y="60" width="10" height="10" fill="white"/>
  <rect x="350" y="60" width="10" height="10" fill="white"/>
  <rect x="30" y="70" width="10" height="30" fill="white"/>
  <rect x="360" y="70" width="10" height="30" fill="white"/>
  <rect x="20" y="100" width="10" height="220" fill="white"/>
  <rect x="370" y="100" width="10" height="220" fill="white"/>
  <rect x="30" y="320" width="10" height="30" fill="white"/>
  <rect x="360" y="320" width="10" height="30" fill="white"/>
  <rect x="40" y="350" width="10" height="10" fill="white"/>
  <rect x="350" y="350" width="10" height="10" fill="white"/>
  <rect x="50" y="360" width="10" height="10" fill="white"/>
  <rect x="340" y="360" width="10" height="10" fill="white"/>
  <rect x="60" y="370" width="10" height="10" fill="white"/>
  <rect x="330" y="370" width="10" height="10" fill="white"/>
  <rect x="70" y="380" width="260" height="10" fill="white"/>
  
  <!-- First C - more detailed pixel version -->
  <rect x="120" y="130" width="10" height="140" fill="white"/>
  <rect x="130" y="120" width="10" height="10" fill="white"/>
  <rect x="140" y="120" width="10" height="10" fill="white"/>
  <rect x="150" y="120" width="10" height="10" fill="white"/>
  <rect x="110" y="140" width="10" height="120" fill="white"/>
  <rect x="130" y="270" width="10" height="10" fill="white"/>
  <rect x="140" y="270" width="10" height="10" fill="white"/>
  <rect x="150" y="270" width="10" height="10" fill="white"/>
  <rect x="160" y="130" width="10" height="10" fill="white"/>
  <rect x="160" y="260" width="10" height="10" fill="white"/>
  <rect x="170" y="140" width="10" height="10" fill="white"/>
  <rect x="170" y="250" width="10" height="10" fill="white"/>
  <rect x="180" y="150" width="10" height="10" fill="white"/>
  <rect x="180" y="240" width="10" height="10" fill="white"/>
  
  <!-- Second C - more detailed pixel version -->
  <rect x="270" y="130" width="10" height="140" fill="white"/>
  <rect x="260" y="120" width="10" height="10" fill="white"/>
  <rect x="250" y="120" width="10" height="10" fill="white"/>
  <rect x="240" y="120" width="10" height="10" fill="white"/>
  <rect x="280" y="140" width="10" height="120" fill="white"/>
  <rect x="260" y="270" width="10" height="10" fill="white"/>
  <rect x="250" y="270" width="10" height="10" fill="white"/>
  <rect x="240" y="270" width="10" height="10" fill="white"/>
  <rect x="230" y="130" width="10" height="10" fill="white"/>
  <rect x="230" y="260" width="10" height="10" fill="white"/>
  <rect x="220" y="140" width="10" height="10" fill="white"/>
  <rect x="220" y="250" width="10" height="10" fill="white"/>
  <rect x="210" y="150" width="10" height="10" fill="white"/>
  <rect x="210" y="240" width="10" height="10" fill="white"/>
  
  <!-- Desk - more detailed pixel version -->
  <rect x="110" y="350" width="180" height="10" fill="#8B4513"/>
  <rect x="110" y="360" width="180" height="5" fill="#a05a2c"/>
  <rect x="130" y="365" width="10" height="25" fill="#8B4513"/>
  <rect x="260" y="365" width="10" height="25" fill="#8B4513"/>
  
  <!-- Tree - more detailed pixel version -->
  <rect x="325" y="290" width="10" height="60" fill="#5d4037"/>
  <!-- Tree foliage -->
  <rect x="325" y="230" width="10" height="60" fill="#2e7d32"/>
  <rect x="315" y="240" width="10" height="40" fill="#2e7d32"/>
  <rect x="335" y="240" width="10" height="40" fill="#2e7d32"/>
  <rect x="305" y="250" width="10" height="20" fill="#388e3c"/>
  <rect x="345" y="250" width="10" height="20" fill="#388e3c"/>
  <rect x="315" y="220" width="30" height="10" fill="#43a047"/>
  <rect x="325" y="210" width="10" height="10" fill="#43a047"/>
</svg> 